<?xml version="1.0" encoding="UTF-8" standalone="no"?>
<!-- Created with Inkscape (http://www.inkscape.org/) -->

<svg
   version="1.1"
   id="svg1"
   width="512"
   height="512"
   viewBox="0 0 512 512"
   xmlns="http://www.w3.org/2000/svg"
   xmlns:svg="http://www.w3.org/2000/svg">
  <defs
     id="defs1" />
  <g
     id="g1">
    <g
       id="g2">
      <path
         style="fill:#fcfcfc"
         d="M 0,256 V 0 H 256 512 V 256 512 H 256 0 Z"
         id="path9" />
      <path
         style="fill:#d0d0d1"
         d="M 37.5,510.80328 C 20.00569,507.57968 4.2859096,491.45315 1.078921,473.4398 c -1.51593871,-8.51488 -1.51593871,-426.364723 0,-434.879605 3.2992627,-18.53164 18.949634,-34.1820113 37.481274,-37.481274 8.514882,-1.51593871 426.364725,-1.51593871 434.879605,0 18.53165,3.2992627 34.18202,18.949634 37.48128,37.481274 1.51594,8.514882 1.51594,426.364725 0,434.879605 -3.29926,18.53165 -18.94963,34.18202 -37.48128,37.48128 -7.70175,1.37117 -428.476254,1.25747 -435.9398,-0.1178 z M 258,409.12857 c 0,-2.18132 4.8144,-16.45187 8.47752,-25.12857 12.27636,-29.07851 114.30351,-256.31144 116.8899,-260.33495 7.99281,-12.43403 18.2579,-19.08324 33.39597,-21.63224 2.72651,-0.4591 -13.29931,-0.80099 -37.76339,-0.80563 -25.43661,-0.005 -40.80057,0.32734 -38.26721,0.8273 12.95196,2.5561 19.42309,10.55523 18.00625,22.25799 -0.48453,4.00219 -95.81144,235.15993 -97.79561,237.1441 -0.61029,0.61029 -1.47174,0.42911 -2.37467,-0.49943 C 256.82558,359.16452 167.31338,135.65792 165.27171,128 c -3.45263,-12.95016 3.24905,-23.24588 16.87506,-25.92496 2.6657,-0.52411 -14.25395,-0.8634 -43.64677,-0.87522 -42.260171,-0.017 -47.146722,0.13555 -40.864359,1.27581 13.957819,2.53336 26.018709,11.09902 32.533489,23.10534 1.94995,3.59362 114.26257,259.08864 124.49552,283.20934 1.41716,3.34048 3.33535,3.53501 3.33535,0.33826 z"
         id="path8" />
      <path
         style="fill:#9d9da0"
         d="M 38,510.56604 C 20.815738,506.72607 5.0786485,490.8229 1.3691425,473.5486 -0.5468037,464.62649 -0.54234679,47.319751 1.3737889,38.5 5.202063,20.878896 20.925757,5.1326216 38.451401,1.3691425 47.373515,-0.5468037 464.68025,-0.54234679 473.5,1.3737889 c 17.6211,3.8282741 33.36738,19.5519681 37.13086,37.0776121 1.91183,8.90296 1.91183,426.194239 0,435.097199 -3.76348,17.52564 -19.50976,33.24934 -37.13086,37.07761 -8.52986,1.85316 -427.196521,1.79531 -435.5,-0.0602 z M 261.00669,401.66678 C 265.76211,386.77721 376.65708,136.38665 383.5789,124.91007 390.62446,113.22833 403.53158,104.64542 416.01541,103.3406 420.08209,102.91555 422,102.28003 422,101.35754 422,100.2352 414.55009,100 379,100 c -35.78433,0 -43,0.23036 -43,1.37277 0,0.91594 1.6579,1.53207 4.98192,1.85147 10.57845,1.01646 17.52935,8.90959 16.7997,19.07701 -0.53497,7.45471 -95.15625,236.95463 -97.91375,237.48568 -1.61594,0.3112 -91.70158,-223.41108 -93.9795,-233.39244 -2.72246,-11.92925 5.96121,-23.29211 17.86163,-23.37253 2.21246,-0.015 3.25,-0.50082 3.25,-1.52196 0,-1.31275 -6.06481,-1.5 -48.58333,-1.5 -38.421782,0 -48.496362,0.26145 -48.167503,1.25 0.228709,0.6875 3.062722,1.58337 6.297807,1.99083 8.441656,1.06322 19.455486,6.60173 25.530066,12.83827 6.64833,6.82558 4.91107,3.04464 73.48044,159.9209 32.33389,73.975 59.23189,135.08157 59.77332,135.79238 1.48774,1.95313 2.25579,0.58295 5.67589,-10.1256 z"
         id="path7" />
      <path
         style="fill:#7d7d81"
         d="M 38.634076,510.41354 C 20.806256,506.09836 5.7829535,490.90807 1.5397834,472.90693 -0.74641701,463.208 -0.74641701,48.791998 1.5397834,39.093068 5.8401754,20.849173 20.849173,5.8401754 39.093068,1.5397834 c 9.69893,-2.28620041 424.114932,-2.28620041 433.813862,0 18.2439,4.300392 33.25289,19.3093896 37.55329,37.5532846 2.2862,9.69893 2.2862,424.114932 0,433.813862 -4.3004,18.2439 -19.30939,33.25289 -37.55329,37.55329 -9.35858,2.20597 -425.150838,2.16128 -434.272854,-0.0467 z M 260.08188,406 c 3.18273,-11.59123 109.31977,-252.56102 122.08809,-277.1845 8.08548,-15.5927 23.69355,-25.6429 40.08003,-25.80795 1.42515,-0.0143 0.74486,-2.79554 -0.83179,-3.400561 -3.84872,-1.476892 -84.13515,-0.652976 -85.40446,0.876441 -1.33621,1.61004 1.96617,3.51657 6.09119,3.51657 10.28066,0 18.17,12.87518 14.49616,23.65732 -3.1981,9.38591 -94.91973,229.86523 -96.20894,231.26587 -1.11756,1.21415 -1.44679,1.06726 -2.24149,-1 C 257.63834,356.59044 236.86261,304.65 211.9824,242.5 162.12972,117.96957 163.01213,120.57054 167.92152,112.62699 c 2.71167,-4.38758 7.89459,-7.66403 13.89755,-8.7855 5.40962,-1.01063 7.37148,-2.47762 5.17257,-3.867818 -2.6429,-1.670897 -95.515886,-1.251847 -96.917754,0.437298 -1.59213,1.9184 -0.337614,2.56231 7.017684,3.60197 12.44954,1.75973 23.88972,9.2493 30.32047,19.84998 2.48261,4.09242 90.4493,203.49843 125.70879,284.96113 2.66403,6.15491 4.7252,5.31871 6.96105,-2.82405 z"
         id="path6" />
      <path
         style="fill:#595a5f"
         d="M 41,510.90853 C 22.542711,507.33051 4.4849434,488.91439 0.99878986,470.11351 c -1.37120005,-7.3949 -1.37120005,-420.832116 0,-428.22702 C 4.5675995,22.639842 22.639842,4.5675995 41.88649,0.99878986 c 7.394904,-1.37120005 420.83212,-1.37120005 428.22702,0 19.24665,3.56880964 37.31889,21.64105214 40.8877,40.88770014 1.3712,7.394904 1.3712,420.83212 0,428.22702 -3.56881,19.24665 -21.64105,37.31889 -40.8877,40.8877 C 463.34431,512.25639 47.489641,512.16657 41,510.90853 Z M 261.35808,403.72819 C 265.04573,391.58335 367.78998,158.36573 381.72903,130.5 c 7.95842,-15.90977 22.64642,-26.5 36.75386,-26.5 3.57197,0 5.84269,-1.85516 4.64424,-3.7943 C 421.61802,97.76391 335.5,99.023777 335.5,101.48764 c 0,1.59992 0.89675,2.11592 4.59704,2.64523 6.02983,0.86253 9.87944,2.93737 13.85869,7.46949 6.62039,7.54021 8.40738,2.34881 -45.16736,131.2166 -49.2154,118.38192 -49.0963,118.11359 -50.64164,114.09388 C 257.63655,355.58578 237.30235,304.775 212.95961,244 188.61687,183.225 168.02659,130.7722 167.20344,127.43822 c -3.15178,-12.76552 2.69522,-21.44517 15.69952,-23.30535 3.70029,-0.52931 4.59704,-1.04531 4.59704,-2.64523 0,-1.956479 -0.7682,-1.98764 -49,-1.98764 -48.333333,0 -49,0.02721 -49,2 0,1.72097 0.905142,2.09981 6.487746,2.71543 12.710074,1.40158 25.404974,9.98249 32.250484,21.7992 1.42913,2.46695 30.36053,67.93537 64.29201,145.48537 33.93148,77.55 62.16493,141.29587 62.741,141.65748 2.17945,1.36811 3.36686,-0.47134 6.08684,-9.42929 z"
         id="path5" />
      <path
         style="fill:#3b3c42"
         d="M 43,511.03927 C 23.984368,506.9945 10.378481,494.91114 2.7532634,475.29623 L 0.5,469.5 V 256 42.5 L 2.7532634,36.703765 C 9.6613313,18.933635 18.911946,9.6473129 36.5,2.8267658 L 42.5,0.5 H 256 469.5 l 6,2.3267658 c 17.58805,6.8205471 26.83867,16.1068692 33.74674,33.8769992 L 511.5,42.5 V 256 469.5 l -2.25326,5.79623 c -6.74206,17.3431 -15.28277,26.17286 -32.39005,33.48627 L 470.5,511.5 l -212,0.14187 C 141.9,511.7199 44.925,511.44873 43,511.03927 Z M 260.01771,409.75 c 1.96037,-7.61017 3.1573,-11.09 7.48119,-21.75 5.71355,-14.08603 109.67809,-247.37485 114.71096,-257.403 7.5041,-14.95214 18.44567,-23.33325 33.82288,-25.90791 6.3387,-1.06131 7.46726,-1.54791 7.46726,-3.21968 0,-2.396805 -87.1241,-3.695664 -88.59188,-1.32074 -1.38008,2.23301 0.23832,3.61309 4.97363,4.24126 10.49506,1.39221 17.85434,9.38714 16.84922,18.30454 -0.58536,5.19328 -95.75614,235.43127 -97.13553,234.99112 -2.61382,-0.83403 -91.8685,-228.20813 -92.35167,-235.26359 -0.69906,-10.20804 3.98401,-15.54439 15.75623,-17.95421 4.36716,-0.89398 5.5,-1.52153 5.5,-3.04683 0,-2.514272 -98.836142,-3.593329 -99.796933,-1.08955 -0.917632,2.39131 0.657217,3.30883 7.624729,4.44222 13.849074,2.25281 24.823964,9.68725 31.359864,21.24333 1.7056,3.01567 30.65745,68.48304 64.33744,145.48304 33.67999,77 61.68262,140.5625 62.22806,141.25 2.13179,2.68697 4.6352,1.38414 5.76455,-3 z"
         id="path4" />
      <path
         style="fill:#2b2c32"
         d="M 43.75,511.27945 C 41.6875,511.05935 40,510.45643 40,509.93963 40,509.42284 39.199805,509 38.221788,509 26.783714,509 3,485.27256 3,473.86155 3,472.92936 2.4375,471.97917 1.75,471.75 -0.08833167,471.13722 -0.08833167,40.862777 1.75,40.25 2.4375,40.020833 3,39.070638 3,38.138455 3,26.777087 26.777087,3 38.138455,3 39.070638,3 40.020833,2.4375 40.25,1.75 c 0.612777,-1.83833167 430.88722,-1.83833167 431.5,0 C 471.97917,2.4375 472.92936,3 473.86155,3 485.22291,3 509,26.777087 509,38.138455 c 0,0.932183 0.5625,1.882378 1.25,2.111545 0.99484,0.331613 1.25,44.372222 1.25,215.75 0,171.37778 -0.25516,215.41839 -1.25,215.75 -0.6875,0.22917 -1.25,1.17936 -1.25,2.11155 C 509,485.22291 485.22291,509 473.86155,509 c -0.93219,0 -1.88236,0.5625 -2.1115,1.25 -0.39609,1.18844 -417.117697,2.19076 -428.00005,1.02945 z M 259.40765,412.75 c 2.22145,-8.05147 7.27195,-22.31123 10.89099,-30.75 19.17854,-44.71989 113.38266,-254.18749 116.27734,-258.5485 6.38458,-9.61879 17.55661,-16.80429 28.00511,-18.01204 9.1725,-1.06024 9.57553,-1.24466 9.23197,-4.22434 L 423.5,98.5 379.88109,98.239585 c -38.90267,-0.232258 -43.76197,-0.08804 -44.94201,1.333823 -2.20933,2.662082 0.11542,4.844542 5.93226,5.569162 9.35929,1.16592 15.63607,7.77419 15.44524,16.26093 -0.12416,5.5215 -94.81241,235.90039 -96.70674,235.28992 -2.22857,-0.71818 -91.8657,-228.00873 -92.33787,-234.13873 -0.72826,-9.45479 6.50524,-17.49527 15.77803,-17.53824 5.22725,-0.0242 8.49872,-4.82444 4.36821,-6.409461 -4.08057,-1.565865 -97.14357,-0.642836 -98.487777,0.976834 -2.364361,2.848877 0.128022,4.842767 7.019892,5.615847 13.013905,1.45982 24.985125,9.54491 31.538385,21.30033 2.44447,4.38496 115.1004,260.46235 125.04988,284.25 1.41081,3.37301 6.11254,4.74197 6.86906,2 z"
         id="path3" />
      <path
         style="fill:#01020a"
         d="m 45.5,511 c -2.75,-0.37719 -4.325,-0.7861 -3.5,-0.90871 0.825,-0.1226 -0.927916,-0.87582 -3.895369,-1.67381 C 21.993261,504.08489 7.9151096,490.00674 3.5825184,473.89537 2.7845255,470.92792 2.0386481,469.175 1.9250131,470 0.60777695,479.56325 0.19779385,428.76693 0.19779385,256 c 0,-172.766926 0.4099831,-223.563247 1.72721925,-214 0.113635,0.825 0.8595124,-0.927916 1.6575053,-3.895369 C 7.9151096,21.993261 21.993261,7.9151096 38.104631,3.5825184 41.072084,2.7845255 42.825,2.0386481 42,1.9250131 32.436753,0.60777695 83.233074,0.19779385 256,0.19779385 c 172.76693,0 223.56325,0.4099831 214,1.72721925 -0.825,0.113635 0.92792,0.8595124 3.89537,1.6575053 16.11137,4.3325912 30.18952,18.4107426 34.52211,34.5221126 0.79799,2.967453 1.54387,4.720369 1.65751,3.895369 1.31723,-9.563247 1.72722,41.233074 1.72722,214 0,172.76693 -0.40999,223.56325 -1.72722,214 -0.11364,-0.825 -0.85952,0.92792 -1.65751,3.89537 -4.33259,16.11137 -18.41074,30.18952 -34.52211,34.52211 -2.96745,0.79799 -4.72037,1.54387 -3.89537,1.65751 0.825,0.11363 -0.975,0.54874 -4,0.96691 C 459.17078,511.98595 52.392901,511.94542 45.5,511 Z m 214.00851,-97.01376 c 0.34459,-0.55757 1.52426,-4.2533 2.62147,-8.21274 3.02631,-10.92081 107.36944,-247.95209 121.57681,-276.1802 6.74218,-13.39579 18.22506,-21.6889 33.2471,-24.01156 7.4308,-1.14892 7.54611,-1.21194 7.54611,-4.12424 V 98.5 l -45.13913,-0.260114 c -48.45791,-0.279239 -47.00718,-0.427364 -45.67584,4.663664 0.38099,1.45692 1.35156,2.09815 3.1816,2.10203 10.71343,0.0227 18.68562,6.98608 18.5183,16.17501 -0.10334,5.67466 -91.48462,230.17233 -95.28992,234.10006 -0.89734,0.92622 -89.91339,-221.41105 -91.68263,-228.99766 -2.77818,-11.91295 5.00293,-21.25056 17.73063,-21.27741 2.87958,-0.006 4.26203,-2.15406 3.31228,-5.146457 C 188.56439,97.05215 88.372859,96.944629 87.771549,99.75 c -0.861252,4.01812 0.213034,4.8495 7.650996,5.92105 13.108025,1.8884 23.687245,8.54516 30.442755,19.1555 1.63655,2.5704 29.96322,66.32345 62.94816,141.67345 32.98494,75.35 61.12098,139.5875 62.52455,142.75 2.53057,5.70186 6.24351,7.85416 8.1705,4.73624 z"
         id="path2" />
    </g>
  </g>
</svg>
